<svg width="13" height="10" viewBox="0 0 13 10" fill="none" xmlns="http://www.w3.org/2000/svg">
<path d="M10.455 0.454932C10.4443 0.465288 10.4343 0.47631 10.425 0.487932L5.21552 7.12543L2.07602 3.98443C1.86276 3.78571 1.58069 3.67753 1.28924 3.68267C0.997784 3.68781 0.719706 3.80588 0.513587 4.012C0.307467 4.21812 0.1894 4.4962 0.184257 4.78765C0.179115 5.0791 0.287299 5.36117 0.486019 5.57443L4.45502 9.54493C4.56194 9.65166 4.68927 9.73576 4.8294 9.79221C4.96953 9.84867 5.11959 9.87632 5.27064 9.87352C5.42169 9.87072 5.57062 9.83753 5.70856 9.77592C5.84651 9.71431 5.97062 9.62555 6.07352 9.51493L12.0615 2.02993C12.2654 1.81593 12.3769 1.53028 12.3719 1.23473C12.3668 0.939192 12.2457 0.657505 12.0346 0.450574C11.8235 0.243643 11.5395 0.128095 11.2439 0.128911C10.9483 0.129726 10.6649 0.24684 10.455 0.454932Z" fill="#EEEEEE"/>
</svg>
