<svg width="69" height="69" viewBox="0 0 69 69" fill="none" xmlns="http://www.w3.org/2000/svg">
<path d="M0 15C0 6.71573 6.71573 0 15 0H54C62.2843 0 69 6.71573 69 15V54C69 62.2843 62.2843 69 54 69H15C6.71573 69 0 62.2843 0 54V15Z" fill="#EEEEEE"/>
<path d="M38.5046 36.568H47.4999L48.9122 27.4709H38.5028V22.4989C38.5028 18.7198 39.7431 15.3687 43.294 15.3687H49V7.42982C47.9975 7.29504 45.8772 7 41.8707 7C33.5048 7 28.6001 11.3983 28.6001 21.4189V27.4709H20V36.568H28.6001V61.572C30.3033 61.827 32.0285 62 33.7993 62C35.4001 62 36.9624 61.8543 38.5046 61.6467V36.568Z" fill="#101010"/>
</svg>
