<svg width="467" height="62" viewBox="0 0 467 62" fill="none" xmlns="http://www.w3.org/2000/svg">
<path d="M30.507 33.706H55.1986L49.6692 61.2404H38.4198L36.6084 55.1639H36.2271C34.5746 57.0628 32.6044 58.6769 30.3163 60.0061C28.0919 61.3354 25.1683 62 21.5456 62C18.7491 62 16.048 61.5569 13.4422 60.6708C10.8999 59.7213 8.61187 58.2654 6.57807 56.3032C4.60783 54.2777 3.01892 51.6508 1.81135 48.4227C0.603785 45.1945 0 41.3017 0 36.7443C0 31.807 0.762675 27.123 2.28803 22.6922C3.81338 18.2614 6.1014 14.3686 9.1521 11.0138C12.2028 7.59571 16.0162 4.90557 20.5922 2.94334C25.1683 0.981113 30.507 0 36.6084 0C41.3116 0 45.411 0.53803 48.9065 1.61409C52.4021 2.69015 55.7071 3.89281 58.8213 5.22205L55.1986 23.6417H39.0871C39.1507 22.9454 39.246 22.1225 39.3731 21.173C39.5002 20.2236 39.5956 19.2425 39.6591 18.2297C39.7227 17.1537 39.7862 16.1092 39.8498 15.0965C39.9133 14.0837 39.9451 13.1976 39.9451 12.438C39.9451 11.9316 39.9133 11.3619 39.8498 10.7289C39.7862 10.0327 39.6273 9.36804 39.3731 8.73507C39.1189 8.10209 38.7375 7.59571 38.2291 7.21593C37.7206 6.77284 36.9897 6.5513 36.0364 6.5513C34.3839 6.5513 32.8586 7.24758 31.4604 8.64012C30.1257 9.96937 28.9181 11.7734 27.8376 14.0521C26.7572 16.2675 25.8038 18.7994 24.9776 21.6478C24.2149 24.4962 23.5476 27.4079 22.9756 30.3829C22.4671 33.2945 22.054 36.1746 21.7362 39.023C21.482 41.8081 21.3549 44.245 21.3549 46.3338C21.3549 46.9668 21.3867 47.758 21.4502 48.7075C21.5138 49.657 21.7045 50.6064 22.0222 51.5559C22.4036 52.4421 22.912 53.2333 23.5476 53.9296C24.2467 54.5625 25.2318 54.879 26.503 54.879C28.6003 54.879 30.6341 53.7397 32.6044 51.461C34.5746 49.1822 36.0682 45.3844 37.0851 40.0674H29.077L30.507 33.706Z" fill="#EEEEEE"/>
<path d="M117.223 15.2864C117.223 19.0209 116.175 22.4706 114.077 25.6355C111.98 28.8004 108.516 31.2057 103.686 32.8515L114.745 61.2404H93.4851L85.0956 34.9403H84.047L78.4222 61.2404H57.83L70.7001 0.949463H95.7731C98.6967 0.949463 101.461 1.13936 104.067 1.51915C106.673 1.83563 108.929 2.53191 110.836 3.60796C112.806 4.62073 114.363 6.07657 115.507 7.9755C116.651 9.81113 117.223 12.2481 117.223 15.2864ZM89.767 28.8637C91.4195 28.8637 92.8177 28.3257 93.9617 27.2496C95.1693 26.1103 96.1226 24.7494 96.8218 23.1669C97.5844 21.5845 98.1247 19.9071 98.4424 18.1348C98.7602 16.2991 98.9191 14.7167 98.9191 13.3874C98.9191 11.7417 98.6331 10.3492 98.0611 9.2098C97.4891 8.00715 96.2498 7.40582 94.3431 7.40582H90.053L85.2863 28.8637H89.767Z" fill="#EEEEEE"/>
<path d="M138.751 61.2404H118.159L131.029 0.949463H151.716L138.751 61.2404Z" fill="#EEEEEE"/>
<path d="M179.857 35.2251C181.763 35.2251 183.352 34.4339 184.623 32.8515C185.958 31.269 187.038 29.3384 187.865 27.0597C188.754 24.781 189.39 22.4074 189.771 19.9387C190.153 17.4701 190.343 15.318 190.343 13.4824C190.343 11.7734 190.057 10.3492 189.485 9.2098C188.913 8.00715 187.674 7.40582 185.767 7.40582H181.477L175.471 35.2251H179.857ZM174.136 41.3017L169.846 61.2404H149.254L162.124 0.949463H184.147C187.769 0.949463 191.074 1.13936 194.061 1.51915C197.048 1.89893 199.623 2.6585 201.783 3.79786C203.944 4.93721 205.629 6.58295 206.836 8.73507C208.044 10.8239 208.648 13.6406 208.648 17.1853C208.648 20.4768 208.107 23.61 207.027 26.585C206.01 29.4967 204.326 32.0602 201.974 34.2757C199.686 36.4278 196.699 38.1368 193.013 39.4028C189.326 40.6687 184.846 41.3017 179.571 41.3017H174.136Z" fill="#EEEEEE"/>
<path d="M245.6 0C251.066 0 255.483 0.696274 258.852 2.08882C262.284 3.48137 264.985 5.63349 266.955 8.54518C268.226 10.5074 269.211 12.7228 269.91 15.1914C270.609 17.66 270.959 20.5084 270.959 23.7366C270.959 26.5217 270.705 29.3068 270.196 32.0919C269.688 34.877 268.957 37.5671 268.004 40.1623C267.114 42.6942 266.002 45.0995 264.667 47.3783C263.396 49.5937 261.966 51.5559 260.377 53.2649C257.39 56.4931 253.926 58.7718 249.985 60.1011C246.108 61.367 241.31 62 235.59 62C230.061 62 225.612 61.4303 222.243 60.291C218.875 59.1516 216.205 57.316 214.235 54.7841C212.837 53.0117 211.725 50.7647 210.898 48.0429C210.136 45.3211 209.754 41.903 209.754 37.7887C209.754 30.7626 210.994 24.4962 213.472 18.9893C216.015 13.4191 219.605 9.01991 224.245 5.79173C227.042 3.82951 230.156 2.37366 233.588 1.42419C237.02 0.474732 241.024 0 245.6 0ZM234.827 55.3538C236.289 55.3538 237.655 54.7208 238.927 53.4548C240.261 52.1256 241.469 50.3849 242.549 48.2328C243.693 46.0174 244.71 43.5171 245.6 40.732C246.553 37.9469 247.348 35.0669 247.983 32.0919C248.619 29.1169 249.096 26.1736 249.413 23.2619C249.795 20.2869 249.985 17.5967 249.985 15.1914C249.985 11.9 249.636 9.65289 248.937 8.45023C248.301 7.18428 247.348 6.5513 246.077 6.5513C244.615 6.5513 243.217 7.18428 241.882 8.45023C240.547 9.71618 239.276 11.4252 238.069 13.5773C236.925 15.6662 235.876 18.1031 234.923 20.8882C234.033 23.61 233.238 26.4267 232.539 29.3384C231.904 32.2501 231.395 35.1302 231.014 37.9786C230.696 40.827 230.537 43.4538 230.537 45.8591C230.537 49.4671 230.919 51.9673 231.681 53.3599C232.507 54.6891 233.556 55.3538 234.827 55.3538Z" fill="#EEEEEE"/>
<path d="M277.069 0.949463H300.33L301.951 42.0613L317.872 0.949463H336.748L339.227 42.0613L355.243 0.949463H365.253L341.705 61.2404H320.255L318.253 27.1547L303.953 61.2404H281.073L277.069 0.949463Z" fill="#EEEEEE"/>
<path d="M372.53 0.949463H412.666L411.141 8.16539H391.693L387.688 26.49H403.991L402.465 33.611H386.163L381.778 53.9296H401.226L399.796 61.2404H359.66L372.53 0.949463Z" fill="#EEEEEE"/>
<path d="M467 15.2864C467 19.0209 465.951 22.4706 463.854 25.6355C461.757 28.8004 458.293 31.2057 453.463 32.8515L464.521 61.2404H443.262L434.872 34.9403H433.824L428.199 61.2404H407.607L420.477 0.949463H445.55C448.473 0.949463 451.238 1.13936 453.844 1.51915C456.45 1.83563 458.706 2.53191 460.613 3.60796C462.583 4.62073 464.14 6.07657 465.284 7.9755C466.428 9.81113 467 12.2481 467 15.2864ZM439.544 28.8637C441.196 28.8637 442.594 28.3257 443.738 27.2496C444.946 26.1103 445.899 24.7494 446.598 23.1669C447.361 21.5845 447.901 19.9071 448.219 18.1348C448.537 16.2991 448.696 14.7167 448.696 13.3874C448.696 11.7417 448.41 10.3492 447.838 9.2098C447.266 8.00715 446.026 7.40582 444.12 7.40582H439.83L435.063 28.8637H439.544Z" fill="#EEEEEE"/>
</svg>
