<svg width="69" height="69" viewBox="0 0 69 69" fill="none" xmlns="http://www.w3.org/2000/svg">
<path d="M34.5 0C25.1376 0 23.9603 0.043125 20.2817 0.207C16.6031 0.3795 14.0976 0.957375 11.9025 1.81125C9.60003 2.67728 7.51449 4.03575 5.79169 5.79169C4.03683 7.51538 2.67852 9.60066 1.81125 11.9025C0.957375 14.0933 0.375188 16.6031 0.207 20.2687C0.043125 23.9559 0 25.1289 0 34.5043C0 43.8711 0.043125 45.0441 0.207 48.7226C0.3795 52.3969 0.957375 54.9024 1.81125 57.0975C2.69531 59.3659 3.87263 61.2892 5.79169 63.2083C7.70644 65.1274 9.62981 66.309 11.8982 67.1888C14.0976 68.0426 16.5988 68.6248 20.2731 68.793C23.9559 68.9569 25.1289 69 34.5 69C43.8711 69 45.0398 68.9569 48.7226 68.793C52.3926 68.6205 54.9067 68.0426 57.1018 67.1888C59.4028 66.3223 61.4868 64.9638 63.2083 63.2083C65.1274 61.2892 66.3047 59.3659 67.1888 57.0975C68.0383 54.9024 68.6205 52.3969 68.793 48.7226C68.9569 45.0441 69 43.8711 69 34.5C69 25.1289 68.9569 23.9559 68.793 20.2731C68.6205 16.6031 68.0383 14.0933 67.1888 11.9025C66.3216 9.6006 64.9633 7.51529 63.2083 5.79169C61.486 4.0351 59.4003 2.67653 57.0975 1.81125C54.8981 0.957375 52.3882 0.375188 48.7183 0.207C45.0354 0.043125 43.8668 0 34.4914 0H34.5043H34.5ZM31.4079 6.21863H34.5043C43.7158 6.21863 44.8069 6.24881 48.4423 6.417C51.8061 6.56794 53.6346 7.13287 54.8507 7.60294C56.4592 8.22825 57.6107 8.97863 58.8182 10.1861C60.0257 11.3936 60.7718 12.5408 61.3971 14.1536C61.8714 15.3654 62.4321 17.1939 62.583 20.5577C62.7512 24.1931 62.7857 25.2842 62.7857 34.4914C62.7857 43.6986 62.7512 44.7939 62.583 48.4294C62.4321 51.7931 61.8671 53.6173 61.3971 54.8334C60.844 56.3314 59.9611 57.6859 58.8139 58.7966C57.6064 60.0041 56.4593 60.7502 54.8464 61.3755C53.6389 61.8499 51.8104 62.4105 48.4423 62.5658C44.8069 62.7296 43.7158 62.7684 34.5043 62.7684C25.2928 62.7684 24.1974 62.7296 20.562 62.5658C17.1982 62.4105 15.3741 61.8499 14.1579 61.3755C12.6593 60.8232 11.3036 59.9419 10.1904 58.7966C9.04224 57.6841 8.15806 56.3284 7.60294 54.8291C7.13287 53.6173 6.56794 51.7888 6.417 48.4251C6.25313 44.7896 6.21863 43.6986 6.21863 34.4827C6.21863 25.2712 6.25313 24.1845 6.417 20.5491C6.57225 17.1853 7.13288 15.3568 7.60725 14.1407C8.23256 12.5321 8.98294 11.3807 10.1904 10.1732C11.3979 8.96569 12.5451 8.21963 14.1579 7.59431C15.3741 7.11994 17.1982 6.55931 20.562 6.40406C23.7446 6.25744 24.978 6.21431 31.4079 6.21V6.21863ZM52.9187 11.9456C52.375 11.9456 51.8367 12.0527 51.3344 12.2608C50.8321 12.4688 50.3757 12.7738 49.9913 13.1582C49.6068 13.5426 49.3019 13.999 49.0938 14.5013C48.8858 15.0036 48.7787 15.542 48.7787 16.0856C48.7787 16.6293 48.8858 17.1676 49.0938 17.6699C49.3019 18.1722 49.6068 18.6286 49.9913 19.013C50.3757 19.3975 50.8321 19.7024 51.3344 19.9105C51.8367 20.1185 52.375 20.2256 52.9187 20.2256C54.0167 20.2256 55.0697 19.7894 55.8461 19.013C56.6225 18.2366 57.0587 17.1836 57.0587 16.0856C57.0587 14.9876 56.6225 13.9346 55.8461 13.1582C55.0697 12.3818 54.0167 11.9456 52.9187 11.9456ZM34.5043 16.7843C32.1543 16.7476 29.8205 17.1788 27.6387 18.0527C25.457 18.9267 23.4708 20.2259 21.796 21.8748C20.1212 23.5237 18.7911 25.4893 17.8833 27.6572C16.9754 29.825 16.5078 32.1519 16.5078 34.5022C16.5078 36.8524 16.9754 39.1793 17.8833 41.3471C18.7911 43.515 20.1212 45.4806 21.796 47.1295C23.4708 48.7784 25.457 50.0776 27.6387 50.9516C29.8205 51.8255 32.1543 52.2567 34.5043 52.2201C39.1555 52.1475 43.5917 50.2489 46.8552 46.934C50.1188 43.6192 51.9479 39.1539 51.9479 34.5022C51.9479 29.8504 50.1188 25.3852 46.8552 22.0703C43.5917 18.7554 39.1555 16.8568 34.5043 16.7843ZM34.5043 22.9986C37.5547 22.9986 40.4801 24.2103 42.6371 26.3673C44.794 28.5242 46.0058 31.4496 46.0058 34.5C46.0058 37.5504 44.794 40.4758 42.6371 42.6327C40.4801 44.7897 37.5547 46.0014 34.5043 46.0014C31.4539 46.0014 28.5285 44.7897 26.3716 42.6327C24.2146 40.4758 23.0029 37.5504 23.0029 34.5C23.0029 31.4496 24.2146 28.5242 26.3716 26.3673C28.5285 24.2103 31.4539 22.9986 34.5043 22.9986Z" fill="#EEEEEE"/>
</svg>
