<svg width="68" height="69" viewBox="0 0 68 69" fill="none" xmlns="http://www.w3.org/2000/svg">
<path d="M0 4.94213C0 2.21231 2.2355 0 4.99375 0H63.0062C65.7645 0 68 2.21231 68 4.94213V64.0579C68 66.7877 65.7645 69 63.0062 69H4.99375C2.2355 69 0 66.7877 0 64.0579V4.94213ZM21.0077 57.7616V26.6038H10.8035V57.7616H21.0077ZM15.9078 22.3474C19.465 22.3474 21.6792 19.9583 21.6792 16.9654C21.6155 13.9078 19.4692 11.5834 15.9757 11.5834C12.4823 11.5834 10.2 13.9121 10.2 16.9654C10.2 19.9583 12.4143 22.3474 15.8398 22.3474H15.9078ZM36.7668 57.7616V40.3607C36.7668 39.4292 36.8348 38.4977 37.1068 37.8336C37.842 35.9749 39.5208 34.0472 42.3428 34.0472C46.036 34.0472 47.5107 36.9021 47.5107 41.0938V57.7616H57.715V39.8906C57.715 30.3169 52.683 25.8664 45.968 25.8664C40.5535 25.8664 38.1268 28.8851 36.7668 31.0112V31.119H36.6987C36.7213 31.083 36.744 31.0471 36.7668 31.0112V26.6038H26.5667C26.6943 29.5277 26.5667 57.7616 26.5667 57.7616H36.7668Z" fill="#EEEEEE"/>
</svg>
