<svg width="224" height="50" viewBox="0 0 224 50" fill="none" xmlns="http://www.w3.org/2000/svg">
<path fill-rule="evenodd" clip-rule="evenodd" d="M24.9123 0H44.8871H94.139V24.3395C94.139 38.077 82.9641 49.2519 69.2266 49.2519H0V24.9123C0 11.1749 11.1749 0 24.9123 0ZM24.6243 7.06134L13.6537 29.0058H35.5948L24.6243 7.06134ZM20.8959 4.76339C11.4831 6.63927 4.36477 14.9568 4.36477 24.9123V37.8258L20.8959 4.76339ZM11.4395 33.4342L5.71473 44.8871H43.5371L37.8124 33.4342H11.4395ZM44.8871 37.8191V4.36477H28.1583L44.8871 37.8191ZM49.2552 11.4261V44.8871H65.984L49.2552 11.4261ZM73.2464 44.4885C82.6592 42.6126 89.7775 34.2951 89.7775 24.3395V11.4261L73.2464 44.4885ZM69.5147 42.1905L88.4276 4.36477H88.4242H50.5985L69.5147 42.1905ZM108.56 23.1302H109.99C110.228 23.1302 110.379 23.0397 110.439 22.832L111.809 19.6698H121.862L123.205 22.832C123.295 23.0431 123.443 23.1302 123.651 23.1302H125.051C125.262 23.1302 125.349 22.9225 125.262 22.7114L118.489 7.16845C118.398 6.96077 118.251 6.87032 118.013 6.87032H115.688C115.477 6.87032 115.3 6.99091 115.212 7.1986L108.349 22.7114C108.258 22.9225 108.319 23.1302 108.56 23.1302ZM116.556 8.54186H117.122L121.118 17.8777H112.556L116.552 8.54186H116.556ZM153.976 31.8229C153.976 32.4594 154.542 32.9417 157.302 33.2131H157.299C162.253 33.672 164.769 35.4574 164.769 38.7134C164.769 41.9694 161.781 44.1568 157.329 44.1568C154.174 44.1568 151.812 43.3596 149.672 41.5775C149.491 41.4468 149.424 41.276 149.407 41.1554C149.38 40.9578 149.441 40.7568 149.595 40.5525L150.998 38.6766C151.179 38.4354 151.377 38.365 151.511 38.3516C151.641 38.3382 151.836 38.3583 152.047 38.5359C153.678 39.8121 155.179 40.3113 157.393 40.3113C158.636 40.3113 160.723 40.1103 160.723 38.7737C160.723 37.9798 160.076 37.4305 156.86 37.1457C153.882 36.8978 149.923 36.0939 149.923 31.9402C149.923 28.8617 152.757 26.7949 156.978 26.7949C159.621 26.7949 162.166 27.6993 164.149 29.3374C164.317 29.4613 164.414 29.6087 164.444 29.7795C164.471 29.9537 164.424 30.1279 164.3 30.3021L162.796 32.1679C162.645 32.3455 162.475 32.4393 162.287 32.4527C162.099 32.4728 161.902 32.3957 161.721 32.2349C160.404 31.1831 158.743 30.6438 156.797 30.6438C155.031 30.6438 153.976 31.0826 153.976 31.8229ZM126.508 27.036H123.078C122.696 27.036 122.394 27.2236 122.254 27.5586L119.983 33.0255L117.855 38.4655L115.698 33.0154L113.313 27.5586C113.176 27.2404 112.884 27.0427 112.549 27.0427H109.059C108.617 27.0427 108.329 27.3275 108.329 27.773V43.1954C108.329 43.6376 108.613 43.9257 109.059 43.9257H111.565C112.007 43.9257 112.295 43.6409 112.295 43.1954V37.2797L112.188 34.0739L115.929 43.4366C116.063 43.7481 116.338 43.9257 116.693 43.9257H118.723C119.078 43.9257 119.356 43.7481 119.487 43.4366L121.339 39.0718L123.259 34.1275L123.151 37.2864V43.1921C123.151 43.6342 123.44 43.9223 123.882 43.9223H126.508C126.95 43.9223 127.235 43.6376 127.235 43.1921V27.7696C127.235 27.3275 126.95 27.0394 126.508 27.0394V27.036ZM141.331 27.4715C141.22 27.1901 140.979 27.036 140.654 27.036H137.254C136.932 27.036 136.691 27.1901 136.581 27.4581L129.529 43.0882C129.449 43.326 129.466 43.527 129.58 43.6811C129.69 43.8352 129.874 43.9156 130.126 43.9156H133.077C133.452 43.9156 133.74 43.7113 133.874 43.3595L134.929 40.6931H142.62L143.682 43.3126C143.856 43.7012 144.178 43.9156 144.593 43.9156H147.427C147.655 43.9156 147.856 43.8151 147.977 43.6376C148.097 43.46 148.124 43.2289 148.04 43.0045L141.331 27.4715ZM136.433 36.938L138.845 30.9988L141.177 36.938H136.433ZM173.834 33.2131C171.073 32.9417 170.507 32.4594 170.507 31.8229C170.507 31.0826 171.563 30.6438 173.328 30.6438C175.274 30.6438 176.936 31.1831 178.252 32.2349C178.433 32.3957 178.631 32.4728 178.818 32.4527C179.006 32.4393 179.177 32.3455 179.327 32.1679L180.831 30.3021C180.955 30.1279 181.002 29.9537 180.975 29.7795C180.945 29.6087 180.848 29.4613 180.681 29.3374C178.698 27.6993 176.152 26.7949 173.509 26.7949C169.288 26.7949 166.454 28.8617 166.454 31.9402C166.454 36.0939 170.414 36.8978 173.391 37.1457C176.607 37.4305 177.254 37.9798 177.254 38.7737C177.254 40.1103 175.167 40.3113 173.924 40.3113C171.71 40.3113 170.209 39.8121 168.578 38.5359C168.367 38.3583 168.176 38.3382 168.042 38.3516C167.908 38.365 167.71 38.4354 167.529 38.6766L166.126 40.5525C165.972 40.7568 165.911 40.9578 165.938 41.1554C165.955 41.276 166.022 41.4468 166.203 41.5775C168.343 43.3596 170.705 44.1568 173.86 44.1568C178.312 44.1568 181.3 41.9694 181.3 38.7134C181.3 35.4574 178.785 33.672 173.83 33.2131H173.834ZM184.399 27.036H187.022C187.425 27.036 187.752 27.363 187.752 27.7663V43.1887C187.752 43.592 187.425 43.919 187.022 43.919H184.399C183.996 43.919 183.669 43.592 183.669 43.1887V27.7663C183.669 27.363 183.996 27.036 184.399 27.036ZM207.244 27.036H204.233C203.811 27.036 203.496 27.2538 203.379 27.6189L201.168 33.0556L198.833 39.2661L196.465 33.0724L194.137 27.639C193.963 27.2504 193.607 27.036 193.135 27.036H190.361C190.003 27.036 189.836 27.2102 189.769 27.3174C189.651 27.495 189.645 27.7228 189.748 27.9505L196.549 43.4299C196.683 43.7381 196.961 43.9156 197.312 43.9156H200.146C200.491 43.9156 200.742 43.7481 200.88 43.4332L207.811 27.8634C207.911 27.562 207.837 27.371 207.76 27.2638C207.683 27.16 207.536 27.036 207.244 27.036ZM213.86 40.0439H222.824V40.0472C223.266 40.0472 223.554 40.3353 223.554 40.7775V43.1927C223.554 43.6382 223.266 43.9229 222.824 43.9229H210.504C210.058 43.9229 209.773 43.6349 209.773 43.1927V27.7703C209.773 27.375 210.108 27.04 210.504 27.04H222.586C223.029 27.04 223.317 27.3281 223.317 27.7703V30.1553C223.317 30.6009 223.029 30.8856 222.586 30.8856H213.86V33.3075H221.484C221.93 33.3075 222.215 33.5922 222.215 34.0344V36.4194C222.215 36.8616 221.926 37.1497 221.484 37.1497H213.86V40.0439ZM130.102 18.2699V22.7418L130.096 22.7452C130.096 23.0132 129.975 23.1338 129.707 23.1338H128.514C128.246 23.1338 128.126 23.0132 128.126 22.7452V7.26248C128.126 6.9945 128.246 6.87391 128.514 6.87391H135.974C139.435 6.87391 142.031 9.3494 142.031 12.5719C142.031 14.9603 140.688 16.8998 138.57 17.7641L141.344 22.715C141.465 22.9562 141.284 23.1338 141.076 23.1338H139.646C139.438 23.1338 139.257 23.0132 139.11 22.7753L136.725 18.2397C136.487 18.2699 136.219 18.2699 135.981 18.2699H130.102ZM135.981 8.66269H130.102V16.4777H135.981C138.607 16.4777 140.068 14.8028 140.068 12.5685C140.068 10.3342 138.607 8.66269 135.981 8.66269ZM144.245 8.66246H150.09V22.7114C150.09 22.9794 150.241 23.1302 150.509 23.1302H151.641C151.909 23.1302 152.06 22.9794 152.06 22.7114V8.66246H157.905C158.173 8.66246 158.324 8.51171 158.324 8.24373V7.28904C158.324 7.02106 158.173 6.87032 157.905 6.87032H144.242C143.974 6.87032 143.823 7.02106 143.823 7.28904V8.24373C143.823 8.51171 143.97 8.66246 144.242 8.66246H144.245Z" fill="url(#paint0_linear_108_13311)"/>
<defs>
<linearGradient id="paint0_linear_108_13311" x1="0" y1="0" x2="20.697" y2="93.9439" gradientUnits="userSpaceOnUse">
<stop stop-color="#2E2A2A"/>
<stop offset="1" stop-color="#565277"/>
</linearGradient>
</defs>
</svg>
