<svg width="250" height="55" viewBox="0 0 250 55" fill="none" xmlns="http://www.w3.org/2000/svg">
<path fill-rule="evenodd" clip-rule="evenodd" d="M27.9707 -0.00756836H50.2828H105.298V27.18C105.298 42.5249 92.8153 55.0074 77.4704 55.0074H0.143311V27.8198C0.143311 12.4749 12.6258 -0.00756836 27.9707 -0.00756836ZM27.6489 7.88005L15.3947 32.3923H39.9032L27.6489 7.88005ZM23.4844 5.3132C12.97 7.40858 5.01881 16.6994 5.01881 27.8198V42.2443L23.4844 5.3132ZM12.9214 37.3389L6.52674 50.1319H48.7749L42.3802 37.3389H12.9214ZM50.2828 42.2368V4.86793H31.5965L50.2828 42.2368ZM55.162 12.7555V50.1319H73.8483L55.162 12.7555ZM81.9605 49.6866C92.4748 47.5913 100.426 38.3005 100.426 27.18V12.7555L81.9605 49.6866ZM77.7922 47.1198L98.9181 4.86793H98.9143H56.6625L77.7922 47.1198ZM121.406 25.8292H123.004C123.269 25.8292 123.438 25.7282 123.505 25.4962L125.036 21.964H136.265L137.765 25.4962C137.866 25.7319 138.031 25.8292 138.263 25.8292H139.827C140.062 25.8292 140.16 25.5972 140.062 25.3615L132.497 7.99979C132.396 7.7678 132.231 7.66677 131.965 7.66677H129.368C129.133 7.66677 128.934 7.80147 128.837 8.03346L121.17 25.3615C121.069 25.5972 121.137 25.8292 121.406 25.8292ZM130.338 9.5339H130.97L135.434 19.9622H125.87L130.334 9.5339H130.338ZM172.137 35.5391C172.137 36.25 172.769 36.7888 175.852 37.0919H175.849C181.383 37.6045 184.193 39.5989 184.193 43.2359C184.193 46.8728 180.855 49.3162 175.882 49.3162C172.357 49.3162 169.72 48.4257 167.329 46.4351C167.126 46.2891 167.052 46.0983 167.033 45.9636C167.003 45.7428 167.07 45.5183 167.242 45.2901L168.81 43.1947C169.012 42.9253 169.233 42.8467 169.383 42.8317C169.529 42.8168 169.746 42.8392 169.981 43.0375C171.804 44.4632 173.48 45.0207 175.953 45.0207C177.341 45.0207 179.673 44.7962 179.673 43.3032C179.673 42.4164 178.95 41.8028 175.358 41.4847C172.032 41.2078 167.609 40.3098 167.609 35.67C167.609 32.2314 170.775 29.9227 175.489 29.9227C178.442 29.9227 181.285 30.933 183.5 32.7627C183.687 32.9011 183.796 33.0658 183.83 33.2566C183.86 33.4512 183.807 33.6457 183.669 33.8403L181.989 35.9245C181.82 36.1228 181.63 36.2276 181.42 36.2425C181.21 36.265 180.99 36.1789 180.788 35.9993C179.317 34.8244 177.461 34.222 175.287 34.222C173.315 34.222 172.137 34.7121 172.137 35.5391ZM141.454 30.1921H137.623C137.196 30.1921 136.859 30.4016 136.702 30.7758L134.165 36.8824L131.789 42.959L129.38 36.8711L126.716 30.7758C126.562 30.4203 126.237 30.1996 125.862 30.1996H121.964C121.47 30.1996 121.148 30.5176 121.148 31.0153V48.2423C121.148 48.7362 121.466 49.058 121.964 49.058H124.762C125.256 49.058 125.578 48.74 125.578 48.2423V41.6344L125.458 38.0535L129.638 48.5117C129.788 48.8597 130.094 49.058 130.491 49.058H132.758C133.155 49.058 133.466 48.8597 133.612 48.5117L135.681 43.6362L137.825 38.1134L137.705 41.6419V48.2386C137.705 48.7325 138.027 49.0543 138.521 49.0543H141.454C141.948 49.0543 142.266 48.7362 142.266 48.2386V31.0115C142.266 30.5176 141.948 30.1958 141.454 30.1958V30.1921ZM158.012 30.6785C157.888 30.3642 157.619 30.1921 157.256 30.1921H153.458C153.099 30.1921 152.829 30.3642 152.706 30.6636L144.829 48.1226C144.74 48.3882 144.758 48.6127 144.886 48.7849C145.009 48.957 145.215 49.0468 145.495 49.0468H148.792C149.211 49.0468 149.533 48.8185 149.682 48.4257L150.861 45.4472H159.452L160.638 48.3733C160.833 48.8073 161.192 49.0468 161.656 49.0468H164.822C165.076 49.0468 165.301 48.9345 165.435 48.7362C165.57 48.5379 165.6 48.2797 165.506 48.029L158.012 30.6785ZM152.541 41.2527L155.235 34.6186L157.839 41.2527H152.541ZM194.318 37.0919C191.235 36.7888 190.602 36.25 190.602 35.5391C190.602 34.7121 191.781 34.222 193.753 34.222C195.927 34.222 197.783 34.8244 199.253 35.9993C199.455 36.1789 199.676 36.265 199.886 36.2425C200.095 36.2276 200.286 36.1228 200.454 35.9245L202.134 33.8403C202.273 33.6457 202.325 33.4512 202.295 33.2566C202.262 33.0658 202.153 32.9011 201.966 32.7627C199.751 30.933 196.907 29.9227 193.955 29.9227C189.24 29.9227 186.075 32.2314 186.075 35.67C186.075 40.3098 190.497 41.2078 193.824 41.4847C197.416 41.8028 198.138 42.4164 198.138 43.3032C198.138 44.7962 195.807 45.0207 194.419 45.0207C191.946 45.0207 190.269 44.4632 188.447 43.0375C188.211 42.8392 187.998 42.8168 187.848 42.8317C187.699 42.8467 187.478 42.9253 187.276 43.1947L185.708 45.2901C185.536 45.5183 185.469 45.7428 185.499 45.9636C185.517 46.0983 185.592 46.2891 185.794 46.4351C188.185 48.4257 190.823 49.3162 194.348 49.3162C199.321 49.3162 202.658 46.8728 202.658 43.2359C202.658 39.5989 199.848 37.6045 194.314 37.0919H194.318ZM206.119 30.1921H209.049C209.5 30.1921 209.865 30.5573 209.865 31.0078V48.2348C209.865 48.6853 209.5 49.0505 209.049 49.0505H206.119C205.669 49.0505 205.304 48.6853 205.304 48.2348V31.0078C205.304 30.5573 205.669 30.1921 206.119 30.1921ZM231.638 30.1921H228.274C227.803 30.1921 227.451 30.4353 227.32 30.8432L224.851 36.916L222.243 43.8532L219.597 36.9347L216.997 30.8656C216.802 30.4316 216.405 30.1921 215.878 30.1921H212.78C212.379 30.1921 212.192 30.3867 212.117 30.5064C211.986 30.7047 211.979 30.9592 212.095 31.2136L219.691 48.5042C219.84 48.8485 220.151 49.0468 220.544 49.0468H223.709C224.095 49.0468 224.375 48.8597 224.529 48.508L232.27 31.1163C232.383 30.7796 232.3 30.5663 232.214 30.4465C232.128 30.3305 231.964 30.1921 231.638 30.1921ZM239.028 44.7213H249.041V44.7251C249.535 44.7251 249.857 45.0469 249.857 45.5408V48.2386C249.857 48.7362 249.535 49.0543 249.041 49.0543H235.279C234.781 49.0543 234.463 48.7325 234.463 48.2386V31.0115C234.463 30.57 234.837 30.1958 235.279 30.1958H248.775C249.269 30.1958 249.591 30.5176 249.591 31.0115V33.6757C249.591 34.1733 249.269 34.4914 248.775 34.4914H239.028V37.1967H247.544C248.042 37.1967 248.36 37.5147 248.36 38.0086V40.6728C248.36 41.1667 248.038 41.4885 247.544 41.4885H239.028V44.7213ZM145.469 20.4V25.3952L145.462 25.3989C145.462 25.6983 145.327 25.833 145.028 25.833H143.696C143.396 25.833 143.262 25.6983 143.262 25.3989V8.10456C143.262 7.80522 143.396 7.67051 143.696 7.67051H152.029C155.894 7.67051 158.794 10.4357 158.794 14.0352C158.794 16.7031 157.293 18.8696 154.928 19.8349L158.027 25.3653C158.161 25.6347 157.959 25.833 157.727 25.833H156.129C155.898 25.833 155.695 25.6983 155.531 25.4326L152.867 20.3663C152.601 20.4 152.302 20.4 152.036 20.4H145.469ZM152.036 9.66861H145.469V18.3981H152.036C154.97 18.3981 156.601 16.5272 156.601 14.0315C156.601 11.5357 154.97 9.66861 152.036 9.66861ZM161.267 9.66861H167.796V25.3615C167.796 25.6609 167.965 25.8292 168.264 25.8292H169.529C169.828 25.8292 169.996 25.6609 169.996 25.3615V9.66861H176.526C176.825 9.66861 176.993 9.50023 176.993 9.20089V8.13449C176.993 7.83515 176.825 7.66677 176.526 7.66677H161.263C160.964 7.66677 160.795 7.83515 160.795 8.13449V9.20089C160.795 9.50023 160.96 9.66861 161.263 9.66861H161.267Z" fill="white"/>
</svg>
