<svg width="548" height="122" viewBox="0 0 548 122" fill="none" xmlns="http://www.w3.org/2000/svg">
<path opacity="0.3" fill-rule="evenodd" clip-rule="evenodd" d="M61.0343 0.375488H109.972H230.637V60.0064C230.637 93.6627 203.259 121.041 169.603 121.041H0V61.4098C0 27.7535 27.378 0.375488 61.0343 0.375488ZM60.3285 17.6755L33.4511 71.4386H87.2059L60.3285 17.6755ZM51.1943 12.0456C28.1331 16.6415 10.6935 37.0191 10.6935 61.4098V93.0472L51.1943 12.0456ZM28.0264 82.288L14.0009 110.347H106.664L92.6388 82.288H28.0264ZM109.972 93.0308V11.069H68.9867L109.972 93.0308ZM120.673 28.369V110.347H161.658L120.673 28.369ZM179.451 109.371C202.512 104.775 219.952 84.3972 219.952 60.0064V28.369L179.451 109.371ZM170.308 103.741L216.644 11.069H216.636H123.964L170.308 103.741ZM265.967 57.0438H269.472C270.054 57.0438 270.424 56.8222 270.571 56.3134L273.928 48.5661H298.557L301.848 56.3134C302.069 56.8304 302.43 57.0438 302.939 57.0438H306.37C306.887 57.0438 307.1 56.535 306.887 56.0179L290.293 17.9382C290.071 17.4293 289.71 17.2078 289.127 17.2078H283.432C282.915 17.2078 282.48 17.5032 282.266 18.012L265.45 56.0179C265.229 56.535 265.377 57.0438 265.967 57.0438ZM285.557 21.303H286.944L296.735 44.1754H275.758L285.549 21.303H285.557ZM377.236 78.3403C377.236 79.8996 378.623 81.0814 385.385 81.7461H385.377C397.515 82.8705 403.678 87.2447 403.678 95.2218C403.678 103.199 396.358 108.558 385.451 108.558C377.72 108.558 371.934 106.605 366.69 102.239C366.247 101.919 366.083 101.5 366.042 101.205C365.976 100.72 366.124 100.228 366.501 99.7273L369.94 95.1315C370.383 94.5406 370.867 94.3682 371.196 94.3354C371.516 94.3026 371.992 94.3518 372.509 94.7868C376.505 97.9136 380.182 99.1364 385.607 99.1364C388.652 99.1364 393.764 98.644 393.764 95.3695C393.764 93.4245 392.181 92.0785 384.302 91.381C377.006 90.7736 367.306 88.804 367.306 78.6275C367.306 71.0854 374.249 66.0218 384.589 66.0218C391.064 66.0218 397.302 68.2377 402.16 72.2508C402.57 72.5545 402.808 72.9156 402.882 73.3341C402.948 73.7609 402.833 74.1876 402.529 74.6144L398.844 79.1856C398.475 79.6205 398.057 79.8503 397.597 79.8832C397.137 79.9324 396.653 79.7437 396.21 79.3497C392.985 76.7728 388.914 75.4515 384.146 75.4515C379.821 75.4515 377.236 76.5266 377.236 78.3403ZM309.94 66.613H301.536C300.6 66.613 299.862 67.0726 299.517 67.8933L293.953 81.2868L288.741 94.6147L283.456 81.2622L277.613 67.8933C277.276 67.1136 276.562 66.6294 275.742 66.6294H267.19C266.107 66.6294 265.401 67.327 265.401 68.4185V106.203C265.401 107.286 266.099 107.992 267.19 107.992H273.329C274.412 107.992 275.118 107.294 275.118 106.203V91.7095L274.855 83.8556L284.022 106.794C284.351 107.557 285.024 107.992 285.894 107.992H290.867C291.737 107.992 292.418 107.557 292.738 106.794L297.276 96.1002L301.979 83.9869L301.716 91.7259V106.195C301.716 107.278 302.422 107.984 303.505 107.984H309.94C311.023 107.984 311.721 107.286 311.721 106.195V68.4103C311.721 67.327 311.023 66.6212 309.94 66.6212V66.613ZM346.255 67.6799C345.984 66.9905 345.393 66.613 344.597 66.613H336.267C335.479 66.613 334.889 66.9905 334.618 67.6471L317.342 105.94C317.145 106.523 317.186 107.015 317.465 107.393C317.736 107.77 318.188 107.967 318.803 107.967H326.033C326.952 107.967 327.658 107.467 327.987 106.605L330.572 100.072H349.415L352.016 106.49C352.443 107.442 353.231 107.967 354.248 107.967H361.191C361.749 107.967 362.242 107.721 362.537 107.286C362.833 106.851 362.898 106.285 362.693 105.735L346.255 67.6799ZM334.257 90.8724L340.165 76.3217L345.877 90.8724H334.257ZM425.886 81.7461C419.124 81.0814 417.737 79.8996 417.737 78.3403C417.737 76.5266 420.322 75.4515 424.647 75.4515C429.415 75.4515 433.486 76.7728 436.711 79.3497C437.154 79.7437 437.638 79.9324 438.098 79.8832C438.557 79.8503 438.976 79.6205 439.345 79.1856L443.03 74.6144C443.334 74.1876 443.449 73.7609 443.383 73.3341C443.309 72.9156 443.071 72.5545 442.661 72.2508C437.802 68.2377 431.565 66.0218 425.09 66.0218C414.749 66.0218 407.806 71.0854 407.806 78.6275C407.806 88.804 417.507 90.7736 424.803 91.381C432.681 92.0785 434.265 93.4245 434.265 95.3695C434.265 98.644 429.152 99.1364 426.108 99.1364C420.683 99.1364 417.006 97.9136 413.009 94.7868C412.492 94.3518 412.025 94.3026 411.696 94.3354C411.368 94.3682 410.884 94.5406 410.441 95.1315L407.002 99.7273C406.625 100.228 406.477 100.72 406.543 101.205C406.584 101.5 406.748 101.919 407.191 102.239C412.435 106.605 418.221 108.558 425.952 108.558C436.859 108.558 444.179 103.199 444.179 95.2218C444.179 87.2447 438.016 82.8705 425.878 81.7461H425.886ZM451.77 66.613H458.196C459.184 66.613 459.985 67.414 459.985 68.4021V106.186C459.985 107.174 459.184 107.975 458.196 107.975H451.77C450.782 107.975 449.981 107.174 449.981 106.186V68.4021C449.981 67.414 450.782 66.613 451.77 66.613ZM507.741 66.613H500.363C499.329 66.613 498.558 67.1464 498.27 68.041L492.854 81.3607L487.134 96.5762L481.331 81.4017L475.628 68.0902C475.201 67.1382 474.331 66.613 473.174 66.613H466.379C465.5 66.613 465.09 67.0397 464.926 67.3024C464.639 67.7373 464.622 68.2954 464.877 68.8535L481.537 106.777C481.865 107.532 482.546 107.967 483.408 107.967H490.351C491.196 107.967 491.812 107.557 492.148 106.785L509.128 68.6401C509.374 67.9015 509.194 67.4337 509.005 67.1711C508.816 66.9166 508.455 66.613 507.741 66.613ZM523.95 98.4806H545.911V98.4888C546.994 98.4888 547.7 99.1946 547.7 100.278V106.195C547.7 107.287 546.994 107.984 545.911 107.984H515.726C514.635 107.984 513.937 107.278 513.937 106.195V68.4107C513.937 67.4423 514.758 66.6216 515.726 66.6216H545.328C546.412 66.6216 547.117 67.3274 547.117 68.4107V74.254C547.117 75.3455 546.412 76.0431 545.328 76.0431H523.95V81.9766H542.628C543.72 81.9766 544.417 82.6742 544.417 83.7575V89.6008C544.417 90.6841 543.712 91.3899 542.628 91.3899H523.95V98.4806ZM318.746 45.1361V56.0922L318.729 56.1004C318.729 56.757 318.434 57.0524 317.777 57.0524H314.856C314.199 57.0524 313.904 56.757 313.904 56.1004V18.1684C313.904 17.5119 314.199 17.2164 314.856 17.2164H333.132C341.61 17.2164 347.97 23.2813 347.97 31.1762C347.97 37.0277 344.679 41.7795 339.493 43.8969L346.288 56.0266C346.583 56.6175 346.14 57.0524 345.631 57.0524H342.127C341.618 57.0524 341.175 56.757 340.814 56.1743L334.971 45.0622C334.388 45.1361 333.731 45.1361 333.149 45.1361H318.746ZM333.149 21.5989H318.746V40.7454H333.149C339.583 40.7454 343.161 36.642 343.161 31.168C343.161 25.6941 339.583 21.5989 333.149 21.5989ZM353.395 21.5984H367.716V56.0179C367.716 56.6745 368.085 57.0438 368.742 57.0438H371.516C372.172 57.0438 372.542 56.6745 372.542 56.0179V21.5984H386.863C387.519 21.5984 387.888 21.2291 387.888 20.5726V18.2336C387.888 17.5771 387.519 17.2078 386.863 17.2078H353.387C352.73 17.2078 352.361 17.5771 352.361 18.2336V20.5726C352.361 21.2291 352.722 21.5984 353.387 21.5984H353.395Z" fill="white"/>
</svg>
