<svg width="217" height="46" viewBox="0 0 217 46" fill="none" xmlns="http://www.w3.org/2000/svg">
<g clip-path="url(#clip0_79_473)">
<path d="M0.983395 32.8633H25.4322C25.9181 32.8633 26.4312 32.6874 26.9792 32.3395C27.5234 31.9917 27.9315 31.5656 28.1997 31.0653L32.2383 23.8736C32.4093 23.5492 32.4948 23.2482 32.4948 22.9746C32.4948 22.3766 32.1683 22.0756 31.5114 22.0756H19.2831C18.6029 22.0756 18.2647 21.7747 18.2647 21.1767C18.2647 20.9031 18.3502 20.6021 18.5174 20.2777L20.5541 16.6818C20.8223 16.1815 21.2266 15.7594 21.7746 15.4076C22.3188 15.0597 22.8241 14.8838 23.2866 14.8838C23.9669 14.8838 24.305 15.1848 24.305 15.7828C24.305 16.0564 24.2195 16.3574 24.0485 16.6818L23.0301 18.4797C22.8591 18.8041 22.7736 19.1051 22.7736 19.3787C22.7736 19.9767 23.1001 20.2777 23.757 20.2777H32.487C32.9729 20.2777 33.486 20.1018 34.034 19.7539C34.5782 19.4061 34.9863 18.98 35.2545 18.4797L37.2563 14.8838C37.4506 14.5594 37.5478 14.2585 37.5478 13.9849C37.5478 13.3869 37.2097 13.0859 36.5294 13.0859H12.0806C11.5947 13.0859 11.0855 13.2618 10.553 13.6097C10.0205 13.9614 9.60851 14.3836 9.31699 14.8838L5.31344 22.0756C5.1191 22.4 5.02192 22.701 5.02192 22.9746C5.02192 23.5726 5.36009 23.8736 6.0403 23.8736H18.2647C18.9449 23.8736 19.2831 24.1706 19.2831 24.7686C19.2831 25.0422 19.182 25.3393 18.976 25.6637L16.9704 29.2557C16.6789 29.7599 16.2707 30.1859 15.7421 30.5377C15.2096 30.8895 14.7043 31.0653 14.2223 31.0653C13.546 31.0653 13.2078 30.7644 13.2078 30.1664C13.2078 29.8928 13.305 29.5918 13.4993 29.2674L14.4827 27.4695C14.6771 27.145 14.7743 26.8441 14.7743 26.5705C14.7743 25.9725 14.4361 25.6715 13.7559 25.6715H5.02192C4.53606 25.6715 4.02687 25.8474 3.49436 26.1953C2.95796 26.5431 2.54594 26.9692 2.25442 27.4695L0.252651 31.0653C0.0855126 31.3898 0 31.6868 0 31.9643C0 32.5623 0.326503 32.8633 0.983395 32.8633Z" fill="#F00714"/>
<path d="M96.4583 13.1094H72.0094C71.5236 13.1094 71.0105 13.2852 70.4624 13.6331C69.9183 13.9849 69.5101 14.407 69.2419 14.9073L67.2052 18.5032C67.0341 18.8276 66.9486 19.1286 66.9486 19.4022C66.9486 20.0002 67.2868 20.3011 67.9709 20.3011H76.7243C77.1868 20.3011 77.6921 20.1292 78.2363 19.7813C78.7844 19.4334 79.1925 19.0152 79.4568 18.5188L80.4713 16.717C80.7589 16.2128 81.1671 15.7867 81.6957 15.431C82.2243 15.0793 82.7296 14.9034 83.2077 14.9034C83.8646 14.9034 84.1911 15.2043 84.1911 15.8102C84.1911 16.0877 84.1133 16.3886 83.9618 16.717L81.9522 20.3011C81.6607 20.7975 81.2448 21.2236 80.7084 21.5714C80.172 21.9193 79.6589 22.0952 79.1731 22.0952H66.9486C66.4628 22.0952 65.9536 22.271 65.4211 22.6189C64.8886 22.9707 64.4765 23.3928 64.185 23.8931L60.1465 31.0849C59.9755 31.4093 59.89 31.7103 59.89 31.9839C59.89 32.5819 60.2281 32.8828 60.9083 32.8828H85.3572C85.8158 32.8828 86.3211 32.7069 86.8653 32.3591C87.4095 32.0112 87.8176 31.5852 88.0858 31.0849L97.1812 14.9034C97.3523 14.579 97.4378 14.278 97.4378 14.0044C97.4378 13.4103 97.1113 13.1094 96.4583 13.1094ZM78.9126 25.6911L76.8836 29.2948C76.6154 29.7951 76.2112 30.2172 75.6632 30.5689C75.1151 30.9168 74.602 31.0927 74.1161 31.0927C73.4593 31.0927 73.1327 30.7917 73.1327 30.1937C73.1327 29.9201 73.2183 29.6192 73.3893 29.2948L75.426 25.6989C75.6942 25.1986 76.0907 24.7764 76.6271 24.4247C77.1596 24.0768 77.6688 23.9009 78.1547 23.9009C78.8349 23.9009 79.1731 24.2019 79.1731 24.796C79.1769 25.0696 79.0875 25.3666 78.9126 25.6911Z" fill="#F00714"/>
<path d="M126.508 13.1094H102.059C101.573 13.1094 101.064 13.2852 100.532 13.6331C99.9993 13.9849 99.5872 14.407 99.2957 14.9073L95.2922 22.0991C95.0978 22.4235 95.0006 22.7244 95.0006 22.998C95.0006 23.5961 95.3388 23.897 96.019 23.897H108.243C108.924 23.897 109.262 24.1941 109.262 24.7921C109.262 25.0657 109.161 25.3627 108.955 25.6871L106.949 29.2791C106.658 29.7833 106.249 30.2094 105.721 30.5611C105.188 30.9129 104.683 31.0888 104.201 31.0888C103.525 31.0888 103.187 30.7878 103.187 30.1898C103.187 29.9162 103.284 29.6153 103.478 29.2908L104.461 27.4929C104.656 27.1685 104.753 26.8675 104.753 26.5939C104.753 25.9959 104.415 25.695 103.735 25.695H95.0045C94.5187 25.695 94.0095 25.8708 93.477 26.2187C92.9445 26.5705 92.5324 26.9926 92.2409 27.4929L90.2391 31.0888C90.0681 31.4132 89.9826 31.7142 89.9826 31.9878C89.9826 32.5858 90.3091 32.8867 90.966 32.8867H115.415C115.901 32.8867 116.414 32.7108 116.962 32.363C117.506 32.0151 117.914 31.5891 118.182 31.0888L122.221 23.897C122.392 23.5726 122.477 23.2716 122.477 22.998C122.477 22.4 122.151 22.0991 121.494 22.0991H109.262C108.582 22.0991 108.243 21.7981 108.243 21.2001C108.243 20.9265 108.329 20.6255 108.496 20.3011L110.533 16.7052C110.801 16.2049 111.205 15.7828 111.753 15.431C112.298 15.0832 112.803 14.9073 113.265 14.9073C113.946 14.9073 114.284 15.2083 114.284 15.8063C114.284 16.0799 114.198 16.3808 114.027 16.7052L113.009 18.5032C112.838 18.8276 112.752 19.1286 112.752 19.4022C112.752 20.0002 113.079 20.3011 113.736 20.3011H122.466C122.952 20.3011 123.465 20.1252 124.013 19.7774C124.557 19.4295 124.965 19.0035 125.233 18.5032L127.235 14.9073C127.429 14.5829 127.527 14.2819 127.527 14.0083C127.527 13.4103 127.184 13.1094 126.508 13.1094Z" fill="#F00714"/>
<path d="M141.621 20.3089C141.329 20.8053 140.913 21.2314 140.377 21.5792C139.84 21.9271 139.327 22.103 138.841 22.103H126.617C126.131 22.103 125.622 22.2789 125.089 22.6267C124.557 22.9785 124.145 23.4006 123.853 23.9009L119.815 31.0927C119.644 31.4171 119.558 31.7181 119.558 31.9917C119.558 32.5897 119.897 32.8906 120.577 32.8906H145.026C145.484 32.8906 145.99 32.7148 146.534 32.3669C147.078 32.019 147.486 31.593 147.754 31.0927L156.85 14.9112C157.021 14.5868 157.106 14.2858 157.106 14.0122C157.106 13.4142 156.78 13.1133 156.123 13.1133H131.674C131.188 13.1133 130.675 13.2891 130.127 13.637C129.583 13.9888 129.175 14.4109 128.906 14.9112L126.87 18.5071C126.699 18.8315 126.613 19.1325 126.613 19.4061C126.613 20.0041 126.951 20.305 127.635 20.305H136.389C136.851 20.305 137.357 20.1331 137.901 19.7852C138.449 19.4373 138.857 19.0191 139.121 18.5227L140.136 16.7209C140.423 16.2167 140.832 15.7906 141.36 15.435C141.889 15.0832 142.394 14.9073 142.872 14.9073C143.529 14.9073 143.856 15.2083 143.856 15.8141C143.856 16.0916 143.778 16.3926 143.626 16.7209L141.621 20.3089ZM138.581 25.6911L136.552 29.2948C136.284 29.7951 135.88 30.2172 135.332 30.569C134.783 30.9168 134.27 31.0927 133.785 31.0927C133.128 31.0927 132.801 30.7917 132.801 30.1937C132.801 29.9201 132.887 29.6192 133.058 29.2948L135.094 25.6989C135.363 25.1986 135.759 24.7764 136.296 24.4247C136.828 24.0768 137.337 23.9009 137.823 23.9009C138.503 23.9009 138.841 24.2019 138.841 24.796C138.841 25.0696 138.752 25.3666 138.581 25.6911Z" fill="#F00714"/>
<path d="M179.06 25.6911C179.351 25.1947 179.763 24.7725 180.299 24.4247C180.832 24.0768 181.345 23.9009 181.831 23.9009H194.071C194.557 23.9009 195.066 23.725 195.602 23.3772C196.135 23.0293 196.551 22.6033 196.842 22.103L200.885 14.9112C201.056 14.5868 201.141 14.2858 201.141 14.0122C201.141 13.4142 200.803 13.1133 200.123 13.1133H175.674C175.188 13.1133 174.679 13.2891 174.146 13.637C173.614 13.9888 173.214 14.4109 172.945 14.9112L163.85 31.0927C163.679 31.4171 163.593 31.7181 163.593 31.9917C163.593 32.5897 163.92 32.8906 164.577 32.8906H189.026C189.512 32.8906 190.025 32.7148 190.573 32.3669C191.117 32.019 191.525 31.593 191.793 31.0927L193.83 27.4968C194.001 27.1724 194.086 26.8714 194.086 26.5978C194.086 25.9998 193.748 25.6989 193.068 25.6989H184.338C183.852 25.6989 183.343 25.8748 182.81 26.2226C182.278 26.5744 181.878 26.9965 181.609 27.4968L180.591 29.2948C180.299 29.7951 179.887 30.2172 179.355 30.569C178.822 30.9207 178.313 31.0927 177.827 31.0927C177.147 31.0927 176.809 30.7878 176.809 30.182C176.809 29.9045 176.895 29.5996 177.066 29.2713L179.06 25.6911ZM182.099 20.2972L184.136 16.7013C184.404 16.2049 184.812 15.7828 185.356 15.435C185.904 15.0871 186.421 14.9112 186.907 14.9112C187.564 14.9112 187.891 15.2122 187.891 15.8102C187.891 16.0838 187.805 16.3847 187.634 16.7092L185.597 20.305C185.329 20.8053 184.925 21.2275 184.377 21.5792C183.833 21.931 183.327 22.103 182.865 22.103C182.185 22.103 181.847 21.802 181.847 21.2001C181.854 20.9226 181.936 20.6216 182.099 20.2972Z" fill="#F00714"/>
<path d="M216.782 8.80211L211.943 0.336137C211.823 0.113349 211.652 0 211.434 0C211.022 0 210.633 0.324412 210.272 0.973235L205.456 9.57991H175.775C175.095 9.57991 174.753 9.21251 174.753 8.6145C174.753 8.3409 174.838 8.03994 175.009 7.71552L177.046 4.11964C177.217 3.79523 177.303 3.49426 177.303 3.22066C177.303 2.62265 176.976 2.32169 176.319 2.32169H167.589C167.103 2.32169 166.59 2.49758 166.042 2.84544C165.498 3.19721 165.09 3.61934 164.822 4.11964L161.759 9.57991H13.7326C12.4304 9.57991 11.2294 10.2835 10.588 11.4209H160.725L148.252 33.6724C148.081 33.9655 147.956 34.2665 147.863 34.5831H40.4203C40.6846 34.1297 41.0655 33.7388 41.5708 33.4105C42.115 33.0587 42.6164 32.8867 43.0789 32.8867H55.3034C55.7892 32.8867 56.3023 32.7109 56.8504 32.363C57.3945 32.0151 57.8027 31.5891 58.0709 31.0888L67.1663 14.9073C67.3373 14.5829 67.4228 14.2819 67.4228 14.0083C67.4228 13.4103 67.0847 13.1094 66.4044 13.1094H41.9556C41.4697 13.1094 40.9606 13.2852 40.428 13.6331C39.8955 13.9849 39.4952 14.407 39.227 14.9073L28.2347 34.4619C28.2114 34.501 28.1959 34.544 28.1725 34.5831H0.0855103C0.726855 35.7205 1.92792 36.424 3.23004 36.424H27.8149C27.846 36.725 27.9238 36.9829 28.0559 37.194L32.8602 45.6209C33.004 45.871 33.1867 45.9961 33.4043 45.9961C33.8164 45.9961 34.2051 45.6717 34.5665 45.0229L39.3825 36.424H147.824C147.851 36.4983 147.886 36.5686 147.921 36.6351L152.726 45.0619C152.869 45.3121 153.052 45.4372 153.27 45.4372C153.682 45.4372 154.07 45.1128 154.436 44.4639L158.937 36.424H200.566C201.86 36.424 203.058 35.7205 203.691 34.5831H159.963L171.981 13.1094C172.273 12.6091 172.685 12.1869 173.218 11.8352C173.75 11.4873 174.244 11.4209 174.73 11.4209H204.418L193.383 31.0888C193.189 31.4132 193.091 31.7142 193.091 31.9878C193.091 32.5858 193.43 32.8867 194.11 32.8867H202.84C203.326 32.8867 203.835 32.7109 204.367 32.363C204.9 32.0151 205.312 31.5891 205.604 31.0888L216.553 11.5342C216.845 11.0105 216.988 10.4359 216.988 9.81052C217 9.38839 216.926 9.05226 216.782 8.80211ZM43.3743 29.2948L50.4252 16.7052C50.6934 16.2049 51.0977 15.7828 51.6457 15.431C52.1899 15.0832 52.7069 14.9073 53.1928 14.9073C53.8496 14.9073 54.1761 15.2083 54.1761 15.8063C54.1761 16.0799 54.0906 16.3808 53.9157 16.7052L46.8648 29.2948C46.5733 29.7951 46.1613 30.2172 45.6288 30.569C45.0963 30.9168 44.5871 31.0927 44.1012 31.0927C43.421 31.0927 43.0828 30.7917 43.0828 30.1937C43.0789 29.9201 43.1761 29.6192 43.3743 29.2948Z" fill="#F00714"/>
</g>
<defs>
<clipPath id="clip0_79_473">
<rect width="217" height="46" fill="white"/>
</clipPath>
</defs>
</svg>
