<svg width="256" height="144" viewBox="0 0 256 144" fill="none" xmlns="http://www.w3.org/2000/svg">
<path d="M87.5084 102.428H71.3931L58.717 74.0612H57.9309V102.428H42.9948V41.4742H59.6014L71.6879 70.724H72.474V41.4742H87.5084V102.428Z" fill="#1B3993"/>
<path d="M139.983 102.428H123.573L121.706 92.8086H110.111L108.244 102.428H92.6197L103.822 41.4742H128.781L139.983 102.428ZM119.839 81.3246L116.4 59.5345H115.712L112.273 81.3246H119.839Z" fill="#1B3993"/>
<path d="M204.154 102.428H188.727V70.6258H187.842L182.045 102.428H166.224L160.721 70.6258H159.739V102.428H144.508L146.571 41.4742H168.681L174.184 74.4538H174.97L180.276 41.4742H202.091L204.154 102.428Z" fill="#1B3993"/>
<path d="M256 102.428H239.59L237.723 92.8086H226.128L224.261 102.428H208.637L219.839 41.4742H244.798L256 102.428ZM235.856 81.3246L232.417 59.5345H231.729L228.29 81.3246H235.856Z" fill="#1B3993"/>
<path d="M64.8985 0.479131C65.637 -0.159709 66.7332 -0.159711 67.4717 0.479129L98.793 27.5738C100.169 28.7636 99.3261 31.0208 97.5064 31.0208H34.8637C33.0441 31.0208 32.2017 28.7636 33.5772 27.5738L64.8985 0.479131Z" fill="#F9BE00"/>
<path d="M67.4717 143.521C66.7332 144.16 65.637 144.16 64.8985 143.521L33.5772 116.426C32.2017 115.236 33.0441 112.979 34.8637 112.979L97.5065 112.979C99.3261 112.979 100.169 115.236 98.793 116.426L67.4717 143.521Z" fill="#E7380D"/>
<path d="M0.47967 73.2851C-0.159889 72.5475 -0.15989 71.4525 0.479668 70.7149L27.6048 39.4287C28.796 38.0547 31.0557 38.8962 31.0557 40.7138L31.0557 103.286C31.0557 105.104 28.796 105.945 27.6048 104.571L0.47967 73.2851Z" fill="#1B3993"/>
</svg>
