<svg width="19" height="19" viewBox="0 0 19 19" fill="none" xmlns="http://www.w3.org/2000/svg">
<path d="M15.2632 0.17384C15.1519 0.0625302 15.0009 0 14.8435 0C14.686 0 14.535 0.0625302 14.4237 0.17384L12.468 2.12963L16.8698 6.53164L18.8256 4.57703C18.8809 4.52188 18.9247 4.45636 18.9547 4.38423C18.9846 4.31209 19 4.23476 19 4.15667C19 4.07857 18.9846 4.00124 18.9547 3.9291C18.9247 3.85697 18.8809 3.79145 18.8256 3.7363L15.2632 0.17384ZM16.0303 7.37119L11.6284 2.96918L3.91004 10.6878H4.15584C4.3133 10.6878 4.46432 10.7504 4.57566 10.8617C4.68701 10.9731 4.74956 11.1241 4.74956 11.2816V11.8753H5.34329C5.50075 11.8753 5.65177 11.9379 5.76311 12.0492C5.87446 12.1606 5.93701 12.3116 5.93701 12.4691V13.0628H6.53073C6.6882 13.0628 6.83921 13.1254 6.95056 13.2367C7.0619 13.3481 7.12446 13.4991 7.12446 13.6565V14.2503H7.71818C7.87565 14.2503 8.02666 14.3128 8.13801 14.4242C8.24935 14.5355 8.31191 14.6866 8.31191 14.844V15.0898L16.0303 7.37119ZM7.16246 16.2393C7.13747 16.1729 7.1246 16.1025 7.12446 16.0315V15.4378H6.53073C6.37327 15.4378 6.22225 15.3752 6.11091 15.2639C5.99956 15.1525 5.93701 15.0015 5.93701 14.844V14.2503H5.34329C5.18582 14.2503 5.0348 14.1877 4.92346 14.0764C4.81211 13.965 4.74956 13.814 4.74956 13.6565V13.0628H4.15584C3.99837 13.0628 3.84736 13.0002 3.73601 12.8889C3.62467 12.7776 3.56211 12.6265 3.56211 12.4691V11.8753H2.96839C2.89741 11.8752 2.82702 11.8623 2.76059 11.8373L2.54803 12.0487C2.49145 12.1057 2.44702 12.1735 2.41741 12.2482L0.0425179 18.1856C-0.000670426 18.2935 -0.0112429 18.4117 0.0121112 18.5256C0.0354653 18.6394 0.0917189 18.7439 0.173898 18.8261C0.256077 18.9083 0.360568 18.9645 0.474416 18.9879C0.588264 19.0112 0.706463 19.0007 0.814359 18.9575L6.7516 16.5825C6.82624 16.5529 6.89411 16.5085 6.95109 16.4519L7.16246 16.2405V16.2393Z" fill="#EEEEEE"/>
</svg>
