<svg width="12" height="12" viewBox="0 0 12 12" fill="none" xmlns="http://www.w3.org/2000/svg">
<g id="Frame 60">
<path id="Vector" d="M0.219668 10.2197C-0.0732225 10.5126 -0.0732225 10.9874 0.219668 11.2803C0.512558 11.5732 0.987437 11.5732 1.28033 11.2803L0.219668 10.2197ZM6.2803 6.2803C6.5732 5.9874 6.5732 5.5126 6.2803 5.2197C5.9874 4.9268 5.5126 4.9268 5.2197 5.2197L6.2803 6.2803ZM5.2197 5.2197C4.9268 5.5126 4.9268 5.9874 5.2197 6.2803C5.5126 6.5732 5.9874 6.5732 6.2803 6.2803L5.2197 5.2197ZM11.2803 1.28033C11.5732 0.987438 11.5732 0.512558 11.2803 0.219668C10.9874 -0.0732225 10.5126 -0.0732225 10.2197 0.219668L11.2803 1.28033ZM6.2803 5.2197C5.9874 4.9268 5.5126 4.9268 5.2197 5.2197C4.9268 5.5126 4.9268 5.9874 5.2197 6.2803L6.2803 5.2197ZM10.2197 11.2803C10.5126 11.5732 10.9874 11.5732 11.2803 11.2803C11.5732 10.9874 11.5732 10.5126 11.2803 10.2197L10.2197 11.2803ZM5.2197 6.2803C5.5126 6.5732 5.9874 6.5732 6.2803 6.2803C6.5732 5.9874 6.5732 5.5126 6.2803 5.2197L5.2197 6.2803ZM1.28033 0.219668C0.987437 -0.0732225 0.512558 -0.0732225 0.219668 0.219668C-0.0732225 0.512558 -0.0732225 0.987438 0.219668 1.28033L1.28033 0.219668ZM1.28033 11.2803L6.2803 6.2803L5.2197 5.2197L0.219668 10.2197L1.28033 11.2803ZM6.2803 6.2803L11.2803 1.28033L10.2197 0.219668L5.2197 5.2197L6.2803 6.2803ZM5.2197 6.2803L10.2197 11.2803L11.2803 10.2197L6.2803 5.2197L5.2197 6.2803ZM6.2803 5.2197L1.28033 0.219668L0.219668 1.28033L5.2197 6.2803L6.2803 5.2197Z" fill="#EEEEEE"/>
</g>
</svg>
