<svg width="24" height="24" viewBox="0 0 24 24" fill="none" xmlns="http://www.w3.org/2000/svg">
<g clip-path="url(#clip0_39_420)">
<path d="M4.29698 22.5267C4.17998 23.1927 4.83698 23.7132 5.41598 23.4162L12.001 20.0322L18.5845 23.4162C19.1635 23.7132 19.8205 23.1927 19.7035 22.5282L18.4585 15.4332L23.7415 10.3992C24.2365 9.92822 23.9815 9.06721 23.3185 8.97422L15.9715 7.93022L12.6955 1.43972C12.6331 1.30815 12.5346 1.19699 12.4115 1.11915C12.2885 1.04132 12.1458 1 12.0002 1C11.8546 1 11.712 1.04132 11.5889 1.11915C11.4658 1.19699 11.3674 1.30815 11.305 1.43972L8.02898 7.93172L0.68198 8.97572C0.0204801 9.06872 -0.23602 9.92972 0.25748 10.4007L5.54198 15.4347L4.29698 22.5297V22.5267ZM11.6545 18.3762L6.12548 21.2172L7.16648 15.2817C7.19087 15.1451 7.18133 15.0046 7.13869 14.8725C7.09606 14.7404 7.02164 14.6208 6.92198 14.5242L2.56298 10.3692L8.64098 9.50522C8.76684 9.48621 8.88621 9.43698 8.98888 9.36174C9.09155 9.2865 9.17445 9.1875 9.23048 9.07322L11.998 3.58622L14.7685 9.07322C14.8245 9.1875 14.9074 9.2865 15.0101 9.36174C15.1127 9.43698 15.2321 9.48621 15.358 9.50522L21.436 10.3677L17.077 14.5227C16.9771 14.6195 16.9025 14.7393 16.8599 14.8717C16.8172 15.004 16.8078 15.1449 16.8325 15.2817L17.8735 21.2172L12.3445 18.3762C12.2376 18.3211 12.119 18.2923 11.9987 18.2923C11.8784 18.2923 11.7599 18.3211 11.653 18.3762H11.6545Z" fill="#F00714"/>
</g>
<defs>
<clipPath id="clip0_39_420">
<rect width="24" height="24" fill="white"/>
</clipPath>
</defs>
</svg>
