<svg width="16" height="12" viewBox="0 0 16 12" fill="none" xmlns="http://www.w3.org/2000/svg">
<path d="M15.1082 0.919083C15.0724 1.4348 14.7763 3.2398 14.4827 5.19288L13.561 10.9755C13.561 10.9755 13.487 11.8231 12.8615 11.9712C12.236 12.1193 11.2046 11.4555 11.0207 11.3074C10.8727 11.1976 8.25834 9.53816 7.30095 8.72884C7.04309 8.50673 6.74949 8.06505 7.33669 7.54934C8.66172 6.33409 10.2472 4.82269 11.2045 3.8653C11.6462 3.42362 12.0879 2.39219 10.2472 3.64318L5.05427 7.14341C5.05427 7.14341 4.46451 7.51104 3.35905 7.17915C2.25358 6.84725 0.964291 6.40558 0.964291 6.40558C0.964291 6.40558 0.0809377 5.85412 1.58979 5.26436L10.1731 1.7284C11.0207 1.36076 13.8929 0.181253 13.8929 0.181253C13.8929 0.181253 15.2179 -0.334461 15.1082 0.919083Z" fill="#2E2A2A"/>
</svg>
