<svg width="18" height="11" viewBox="0 0 18 11" fill="none" xmlns="http://www.w3.org/2000/svg">
<path fill-rule="evenodd" clip-rule="evenodd" d="M16.7692 0.768028C16.8924 0.377821 16.7692 0.09416 16.2244 0.09416H14.4128C13.9558 0.09416 13.7448 0.342537 13.6216 0.608209C13.6216 0.608209 12.6897 2.8775 11.3883 4.34873C10.9663 4.77422 10.7729 4.91605 10.5442 4.91605C10.4211 4.91605 10.2626 4.77422 10.2626 4.38436V0.749694C10.2626 0.288918 10.1222 0.0761719 9.73511 0.0761719H6.88604C6.60445 0.0761719 6.42872 0.288918 6.42872 0.501664C6.42872 0.944798 7.07941 1.05134 7.14963 2.29219V4.98835C7.14963 5.57332 7.04586 5.68021 6.81547 5.68021C6.20006 5.68021 4.7053 3.39328 3.80866 0.7874C3.63431 0.271275 3.45719 0.0761719 2.99987 0.0761719H1.17095C0.643408 0.0761719 0.555542 0.324202 0.555542 0.590221C0.555542 1.06899 1.17095 3.47976 3.42191 6.6706C4.91667 8.84995 7.04447 10.0213 8.96126 10.0213C10.1222 10.0213 10.2626 9.75524 10.2626 9.31211V7.66341C10.2626 7.13172 10.3682 7.04317 10.7376 7.04317C11.0012 7.04317 11.4762 7.18465 12.5489 8.23074C13.7797 9.47158 13.9907 10.0389 14.6767 10.0389H16.488C17.0155 10.0389 17.2618 9.77289 17.121 9.25884C16.9629 8.74479 16.3648 8.00035 15.591 7.11408C15.169 6.61802 14.5359 6.06834 14.3425 5.80232C14.0789 5.44775 14.1492 5.30591 14.3425 4.98697C14.3249 4.98697 16.5409 1.83141 16.7692 0.766645" fill="#2E2A2A"/>
</svg>
