<svg width="17" height="17" viewBox="0 0 17 17" fill="none" xmlns="http://www.w3.org/2000/svg">
<path fill-rule="evenodd" clip-rule="evenodd" d="M8.92596 0.160156C4.53687 0.160156 0.977997 3.71903 0.977997 8.10812C0.977997 9.60901 1.39446 11.0125 2.11922 12.2106L0.685932 16.4753L5.08584 15.0663C6.22436 15.6964 7.53324 16.0561 8.92596 16.0561C13.3151 16.0561 16.8739 12.4972 16.8739 8.11082C16.8739 3.71632 13.3151 0.160156 8.92596 0.160156ZM8.92596 14.7878C7.5684 14.7878 6.30548 14.3821 5.2508 13.6817L2.68442 14.5038L3.52005 12.024C2.71957 10.9233 2.24902 9.56845 2.24902 8.10541C2.24902 4.42215 5.2454 1.42577 8.93137 1.42577C12.6146 1.42577 15.6137 4.42215 15.6137 8.10541C15.6083 11.7887 12.6092 14.7878 8.92596 14.7878ZM12.9392 9.93623C12.9878 10.0174 12.9878 10.4068 12.8256 10.8611C12.6633 11.3154 11.8682 11.7535 11.5113 11.786C11.1543 11.8184 11.1543 12.078 9.17476 11.2992C7.1952 10.5204 5.94581 8.48943 5.84846 8.35962C5.7511 8.22981 5.05339 7.30494 5.05339 6.34491C5.05339 5.38759 5.55639 4.91433 5.73488 4.71962C5.91336 4.52491 6.1243 4.47623 6.2541 4.47623C6.38391 4.47623 6.51372 4.49246 6.6273 4.49246C6.74088 4.49246 6.90314 4.42756 7.06539 4.81698C7.22765 5.2064 7.61707 6.16643 7.66575 6.26378C7.71443 6.36114 7.74688 6.47472 7.68198 6.60452C7.61708 6.73433 7.58462 6.81546 7.48727 6.92904C7.38991 7.04262 7.28174 7.18325 7.1952 7.26978C7.09785 7.36714 6.99508 7.47261 7.10866 7.66732C7.22225 7.86203 7.61437 8.50025 8.19309 9.01677C8.93678 9.67933 9.56418 9.88485 9.75889 9.98221C9.9536 10.0796 10.0672 10.0633 10.1808 9.93353C10.2943 9.80372 10.6675 9.36562 10.7973 9.17091C10.9271 8.9762 11.057 9.00866 11.2354 9.07356C11.4139 9.13846 12.3712 9.60901 12.566 9.70637C12.7607 9.80643 12.8905 9.8551 12.9392 9.93623Z" fill="#2E2A2A"/>
</svg>
