<svg width="28" height="19" viewBox="0 0 28 19" fill="none" xmlns="http://www.w3.org/2000/svg">
<path fill-rule="evenodd" clip-rule="evenodd" d="M28 9.77991C28 9.5 27.8889 9.23155 27.6912 9.03363C27.4934 8.8357 27.2252 8.7245 26.9455 8.7245L3.60187 8.44459L10.2388 1.80397C10.4368 1.60579 10.548 1.33701 10.548 1.05674C10.548 0.776476 10.4368 0.507689 10.2388 0.309512C10.0408 0.111335 9.7722 6.60327e-09 9.49218 0C9.21217 -6.60327e-09 8.94362 0.111335 8.74562 0.309512L0.309793 8.75277C0.211594 8.85081 0.133684 8.96728 0.0805244 9.0955C0.0273647 9.22372 0 9.36118 0 9.5C0 9.63882 0.0273647 9.77628 0.0805244 9.9045C0.133684 10.0327 0.211594 10.1492 0.309793 10.2472L8.74562 18.6905C8.94362 18.8887 9.21217 19 9.49218 19C9.7722 19 10.0408 18.8887 10.2388 18.6905C10.4368 18.4923 10.548 18.2235 10.548 17.9433C10.548 17.663 10.4368 17.3942 10.2388 17.196L3.60187 10.5554L26.9455 10.8353C27.2252 10.8353 27.4934 10.7241 27.6912 10.5262C27.8889 10.3283 28 10.0598 28 9.77991Z" fill="#EEEEEE"/>
</svg>
