<svg width="21" height="14" viewBox="0 0 21 14" fill="none" xmlns="http://www.w3.org/2000/svg">
<path fill-rule="evenodd" clip-rule="evenodd" d="M0 7.20625C0 7 0.0833223 6.8022 0.231637 6.65636C0.379952 6.51052 0.58111 6.42858 0.790858 6.42858L18.2986 6.22233L13.3209 1.32924C13.1724 1.18322 13.089 0.985162 13.089 0.778651C13.089 0.57214 13.1724 0.374087 13.3209 0.228061C13.4694 0.082036 13.6708 4.86557e-09 13.8809 0C14.0909 -4.86557e-09 14.2923 0.082036 14.4408 0.228061L20.7677 6.44941C20.8413 6.52165 20.8997 6.60747 20.9396 6.70195C20.9795 6.79642 21 6.89771 21 7C21 7.10229 20.9795 7.20357 20.9396 7.29805C20.8997 7.39253 20.8413 7.47835 20.7677 7.55059L14.4408 13.7719C14.2923 13.918 14.0909 14 13.8809 14C13.6708 14 13.4694 13.918 13.3209 13.7719C13.1724 13.6259 13.089 13.4279 13.089 13.2213C13.089 13.0148 13.1724 12.8168 13.3209 12.6708L18.2986 7.77767L0.790858 7.98392C0.58111 7.98392 0.379952 7.90199 0.231637 7.75615C0.0833223 7.6103 0 7.4125 0 7.20625Z" fill="#EEEEEE"/>
</svg>
