<svg width="22" height="26" viewBox="0 0 22 26" fill="none" xmlns="http://www.w3.org/2000/svg">
<path fill-rule="evenodd" clip-rule="evenodd" d="M12.5625 23.9376C12.5625 24.352 12.3979 24.7494 12.1048 25.0425C11.8118 25.3355 11.4144 25.5001 11 25.5001C10.5856 25.5001 10.1881 25.3355 9.89512 25.0425C9.6021 24.7494 9.43748 24.352 9.43748 23.9376L9.43748 5.83448L2.73123 12.5439C2.58595 12.6891 2.41349 12.8044 2.22368 12.883C2.03387 12.9616 1.83043 13.0021 1.62498 13.0021C1.41953 13.0021 1.21609 12.9616 1.02628 12.883C0.836467 12.8044 0.664003 12.6891 0.518728 12.5439C0.373453 12.3986 0.258216 12.2261 0.179594 12.0363C0.100972 11.8465 0.0605076 11.6431 0.0605077 11.4376C0.0605077 11.2322 0.100972 11.0287 0.179594 10.8389C0.258216 10.6491 0.373454 10.4766 0.518728 10.3314L9.89373 0.956357C10.0389 0.810847 10.2113 0.695401 10.4011 0.616631C10.591 0.53786 10.7945 0.497314 11 0.497314C11.2055 0.497314 11.409 0.53786 11.5988 0.616631C11.7887 0.695401 11.9611 0.810847 12.1062 0.956357L21.4812 10.3314C21.7746 10.6248 21.9395 11.0227 21.9395 11.4376C21.9395 11.8525 21.7746 12.2505 21.4812 12.5439C21.1878 12.8373 20.7899 13.0021 20.375 13.0021C19.9601 13.0021 19.5621 12.8373 19.2687 12.5439L12.5625 5.83448L12.5625 23.9376Z" fill="#EEEEEE"/>
</svg>
