<svg width="15" height="12" viewBox="0 0 15 12" fill="none" xmlns="http://www.w3.org/2000/svg">
<path d="M14.5602 2.93432C14.5602 1.64755 13.6135 0.612421 12.4438 0.612421C10.8594 0.53836 9.24359 0.509766 7.59227 0.509766H7.07749C5.43018 0.509766 3.81146 0.53836 2.22707 0.612707C1.06022 0.612707 0.113584 1.65356 0.113584 2.94032C0.0420864 3.95801 0.0117713 4.97599 0.0134872 5.99396C0.0106273 7.01194 0.0430397 8.03087 0.110724 9.05075C0.110724 10.3375 1.05736 11.3812 2.22421 11.3812C3.88868 11.4584 5.59605 11.4927 7.33202 11.4899C9.07085 11.4956 10.7735 11.4594 12.4398 11.3812C13.6095 11.3812 14.5562 10.3375 14.5562 9.05075C14.6248 8.02991 14.6563 7.01194 14.6534 5.9911C14.6599 4.97313 14.6288 3.9542 14.5602 2.93432ZM5.93352 8.79912V3.18023L10.0804 5.98825L5.93352 8.79912Z" fill="#2E2A2A"/>
</svg>
